<?xml version="1.0" encoding="utf-8"?>
<!-- Generator: Adobe Illustrator 19.0.0, SVG Export Plug-In . SVG Version: 6.00 Build 0)  -->
<svg version="1.1" xmlns="http://www.w3.org/2000/svg" xmlns:xlink="http://www.w3.org/1999/xlink" x="0px" y="0px"
	 viewBox="0 0 360 360" style="enable-background:new 0 0 360 360;" xml:space="preserve">
<style type="text/css">
	.st0{enable-background:new    ;}
	.st1{fill-rule:evenodd;clip-rule:evenodd;fill:#0070FA;}
</style>
<g id="Background_xA0_Image_1_">
</g>
<g id="Shape_1_" class="st0">
	<g id="Shape">
		<g>
			<path class="st1" d="M268.8,137.1l-88.3-88.4l-88.7,88.8l-63.9-64v135.7l94,102.3l58.3-58.3l58.3,58.3l94-103v-135L268.8,137.1z
				 M47.1,120.1l31,31.1l-31,31.1V120.1z M122.4,283.6l-71.6-77.9l41-41l74.7,74.8L122.4,283.6z M105.4,151.1L180.5,76l74.7,74.8
				l-75.1,75.1L105.4,151.1z M237.8,283.6l-44-44.1l75.1-75.1l40.6,40.6L237.8,283.6z M313.1,181.5l-30.7-30.7l30.7-30.7V181.5z"/>
		</g>
	</g>
</g>
</svg>
